# xmcd
#
# Track frame offsets:
#	183
#	30258
#	51143
#	76610
#	98720
#	125455
#	156183
#	167805
#	181390
#
# Disc length: 2770 seconds
# Revision: 0
# Processed by: cddbd v1.5.2PL0 Copyright (c) Steve Scherf et al.
# Submitted via: dBpowerAMP V12.0
#
DISCID=600ad009
DTITLE=Duke Ellington and Johnny Hodges - Side By Side [dBP-LITE-FLAC@]
DYEAR=1959
DGENRE=Jazz
TTITLE0=Stompy Jones
TTITLE1=Squeeze Me
TTITLE2=Big Shoe
TTITLE3=Going Up
TTITLE4=Just A Memory
TTITLE5=Let's Fall In Love
TTITLE6=Ruint
TTITLE7=Bend One
TTITLE8=You Need To Rock
EXTD=
EXTT0=
EXTT1=
EXTT2=
EXTT3=
EXTT4=
EXTT5=
EXTT6=
EXTT7=
EXTT8=
PLAYORDER=
